<svg xmlns="http://www.w3.org/2000/svg" width="200" height="45" viewBox="0 0 980 220" role="img" aria-label="CogMem KOS logo">
  <defs>
    <linearGradient id="g1" x1="0" y1="0" x2="1" y2="1">
      <stop offset="0" stop-color="#6EE7FF"/>
      <stop offset="0.55" stop-color="#A78BFA"/>
      <stop offset="1" stop-color="#34D399"/>
    </linearGradient>
    <linearGradient id="g2" x1="1" y1="0" x2="0" y2="1">
      <stop offset="0" stop-color="#0EA5E9"/>
      <stop offset="1" stop-color="#8B5CF6"/>
    </linearGradient>
    <filter id="softShadow" x="-30%" y="-30%" width="160%" height="160%">
      <feDropShadow dx="0" dy="6" stdDeviation="10" flood-color="#000" flood-opacity="0.22"/>
    </filter>
    <filter id="innerGlow" x="-30%" y="-30%" width="160%" height="160%">
      <feGaussianBlur in="SourceGraphic" stdDeviation="0.6" result="blur"/>
      <feColorMatrix in="blur" type="matrix"
        values="1 0 0 0 0
                0 1 0 0 0
                0 0 1 0 0
                0 0 0 0.45 0" result="glow"/>
      <feMerge>
        <feMergeNode in="glow"/>
        <feMergeNode in="SourceGraphic"/>
      </feMerge>
    </filter>
    <style>
      .wordmark { font-family: ui-sans-serif, system-ui, -apple-system, Segoe UI, Roboto, Helvetica, Arial, "Apple Color Emoji","Segoe UI Emoji"; }
    </style>
  </defs>

  <!-- Icon -->
  <g transform="translate(46,28)" filter="url(#softShadow)">
    <!-- outer rounded tile -->
    <rect x="0" y="0" width="164" height="164" rx="38" fill="#0B1020"/>
    <!-- gradient ring -->
    <path d="M82 18
             a64 64 0 1 1 0 128
             a64 64 0 1 1 0 -128"
          fill="none" stroke="url(#g1)" stroke-width="14" stroke-linecap="round" opacity="0.92"/>

    <!-- knowledge graph nodes + links -->
    <g stroke="url(#g2)" stroke-width="4" stroke-linecap="round" stroke-linejoin="round" opacity="0.95">
      <path d="M54 62 L82 48 L110 62"/>
      <path d="M54 62 L54 102 L82 120 L110 102 L110 62"/>
      <path d="M82 48 L82 120"/>
    </g>

    <!-- nodes -->
    <g filter="url(#innerGlow)">
      <circle cx="82" cy="48" r="8.5" fill="url(#g1)"/>
      <circle cx="54" cy="62" r="7.5" fill="url(#g1)"/>
      <circle cx="110" cy="62" r="7.5" fill="url(#g1)"/>
      <circle cx="54" cy="102" r="7.5" fill="url(#g1)"/>
      <circle cx="110" cy="102" r="7.5" fill="url(#g1)"/>
      <circle cx="82" cy="120" r="8.5" fill="url(#g1)"/>
    </g>

    <!-- subtle "KOS" glyph -->
    <g opacity="0.85">
      <path d="M33 136
               c10 8 24 8 34 0
               c10 -8 24 -8 34 0
               c10 8 24 8 34 0"
            fill="none" stroke="#E5E7EB" stroke-width="3.5" stroke-linecap="round" opacity="0.45"/>
    </g>
  </g>

  <!-- Wordmark -->
  <g class="wordmark" transform="translate(248,70)">
    <text x="0" y="0" font-size="56" font-weight="800" fill="#0B1020">CogMem</text>
    <text x="246" y="0" font-size="56" font-weight="800" fill="url(#g2)">KOS</text>

    <text x="0" y="44" font-size="18" font-weight="600" fill="#334155" opacity="0.92">
      Knowledge Operating System
    </text>

    <!-- tagline chips -->
    <g transform="translate(0,74)">
      <rect x="0" y="0" width="132" height="34" rx="17" fill="#EEF2FF"/>
      <text x="16" y="22" font-size="14" font-weight="700" fill="#4338CA">search-first</text>

      <rect x="146" y="0" width="148" height="34" rx="17" fill="#ECFEFF"/>
      <text x="162" y="22" font-size="14" font-weight="700" fill="#0E7490">graph + vector</text>

      <rect x="308" y="0" width="132" height="34" rx="17" fill="#ECFDF5"/>
      <text x="324" y="22" font-size="14" font-weight="700" fill="#047857">agents</text>
    </g>
  </g>
</svg>