<svg xmlns="http://www.w3.org/2000/svg" viewBox="0 0 280 48" role="img" aria-label="CogMem KOS logo">
  <defs>
    <linearGradient id="g1" x1="0" y1="0" x2="1" y2="1">
      <stop offset="0" stop-color="#6EE7FF"/>
      <stop offset="0.55" stop-color="#A78BFA"/>
      <stop offset="1" stop-color="#34D399"/>
    </linearGradient>
    <linearGradient id="g2" x1="1" y1="0" x2="0" y2="1">
      <stop offset="0" stop-color="#0EA5E9"/>
      <stop offset="1" stop-color="#8B5CF6"/>
    </linearGradient>
    <style>
      .wordmark { font-family: ui-sans-serif, system-ui, -apple-system, Segoe UI, Roboto, Helvetica, Arial, sans-serif; }
    </style>
  </defs>

  <!-- Icon -->
  <g transform="translate(4,4)">
    <rect x="0" y="0" width="40" height="40" rx="10" fill="#0B1020"/>
    <path d="M20 6 a14 14 0 1 1 0 28 a14 14 0 1 1 0 -28" fill="none" stroke="url(#g1)" stroke-width="3" stroke-linecap="round" opacity="0.92"/>
    <g stroke="url(#g2)" stroke-width="1.2" stroke-linecap="round" stroke-linejoin="round" opacity="0.95">
      <path d="M13 15 L20 11 L27 15"/>
      <path d="M13 15 L13 25 L20 29 L27 25 L27 15"/>
      <path d="M20 11 L20 29"/>
    </g>
    <circle cx="20" cy="11" r="2" fill="url(#g1)"/>
    <circle cx="13" cy="15" r="1.8" fill="url(#g1)"/>
    <circle cx="27" cy="15" r="1.8" fill="url(#g1)"/>
    <circle cx="13" cy="25" r="1.8" fill="url(#g1)"/>
    <circle cx="27" cy="25" r="1.8" fill="url(#g1)"/>
    <circle cx="20" cy="29" r="2" fill="url(#g1)"/>
  </g>

  <!-- Wordmark -->
  <g class="wordmark" transform="translate(54,32)">
    <text x="0" y="0" font-size="22" font-weight="800" fill="#0B1020">CogMem</text>
    <text x="95" y="0" font-size="22" font-weight="800" fill="url(#g2)">KOS</text>
  </g>
</svg>